<?xml version="1.0" standalone="no"?>
<!DOCTYPE svg PUBLIC "-//W3C//DTD SVG 20010904//EN"
 "http://www.w3.org/TR/2001/REC-SVG-20010904/DTD/svg10.dtd">
<svg version="1.0" xmlns="http://www.w3.org/2000/svg"
 width="800.000000pt" height="499.000000pt" viewBox="0 0 800.000000 499.000000"
 preserveAspectRatio="xMidYMid meet">

<g transform="translate(0.000000,499.000000) scale(0.100000,-0.100000)"
fill="#000000" stroke="none">
<path d="M0 2495 l0 -2495 4000 0 4000 0 0 2495 0 2495 -4000 0 -4000 0 0
-2495z m4153 2228 c-7 -2 -19 -2 -25 0 -7 3 -2 5 12 5 14 0 19 -2 13 -5z m467
-11 c0 -4 -19 -6 -42 -4 -71 5 -77 10 -15 11 31 0 57 -2 57 -7z m158 1 c-10
-2 -28 -2 -40 0 -13 2 -5 4 17 4 22 1 32 -1 23 -4z m-208 -82 c295 -55 525
-137 723 -259 37 -23 70 -42 73 -42 3 0 61 -42 130 -92 69 -51 133 -92 142
-90 12 2 13 0 4 -6 -9 -6 4 -24 45 -63 32 -30 80 -79 106 -109 l48 -53 61 2
c68 2 77 -5 13 -10 -22 -1 -43 -4 -47 -6 -4 -2 34 -58 83 -126 104 -142 251
-425 289 -556 17 -57 28 -81 39 -81 12 0 13 -2 3 -8 -10 -7 -10 -15 -2 -36 17
-45 13 -56 -20 -56 -25 0 -30 4 -36 35 -3 19 -10 38 -15 41 -5 3 -7 9 -4 14 6
10 -62 195 -108 290 -75 155 -145 267 -242 390 -64 81 -69 84 -130 103 l-50
16 45 -5 45 -5 -70 68 c-139 135 -345 300 -345 276 0 -4 -4 -3 -8 2 -4 6 -21
21 -39 33 -27 19 -44 22 -134 22 -56 0 -100 3 -97 6 4 3 43 6 87 6 94 1 92 5
-35 63 -307 140 -526 193 -839 202 -267 8 -461 -17 -686 -86 -162 -50 -389
-150 -389 -171 0 -5 -7 -10 -15 -10 -16 0 -63 -26 -80 -44 -5 -6 -26 -19 -46
-29 -111 -57 -327 -246 -457 -402 -71 -84 -212 -289 -212 -307 0 -4 24 -8 53
-8 l52 1 47 72 c103 158 252 322 410 449 61 50 85 75 81 87 -5 12 -3 13 7 4
10 -9 25 -3 70 28 31 21 106 63 165 93 l108 55 -89 4 -89 3 99 2 c88 2 113 7
227 46 446 156 923 152 1356 -10 67 -25 127 -43 132 -39 6 3 11 0 11 -7 0 -7
14 -19 31 -27 69 -30 198 -106 277 -162 45 -32 84 -59 87 -59 2 0 6 8 8 18 2
9 3 7 2 -5 -2 -17 14 -37 59 -77 84 -74 194 -188 257 -266 128 -160 264 -411
317 -585 5 -19 16 -31 30 -33 12 -2 22 -7 22 -12 0 -4 -9 -6 -20 -3 -18 5 -19
3 -10 -21 16 -43 12 -56 -15 -56 -21 0 -27 7 -37 45 -8 29 -18 45 -28 45 -11
0 -12 2 -2 8 10 7 6 26 -19 88 -210 527 -638 936 -1164 1112 -197 66 -304 88
-508 102 -219 14 -521 -20 -687 -79 l-55 -20 87 0 c48 -1 98 -5 112 -11 16 -6
27 -6 31 0 4 6 23 10 43 9 36 -1 35 -1 -16 -15 -32 -9 -59 -11 -65 -6 -7 5
-68 8 -137 8 l-125 -1 -135 -66 c-407 -199 -701 -485 -897 -873 -54 -107 -98
-219 -114 -292 -12 -52 -13 -54 -45 -54 -32 0 -32 0 -23 36 8 25 7 39 -2 50
-9 11 -8 14 10 14 12 0 21 6 21 15 0 23 57 160 111 268 27 53 49 100 49 103 0
3 -23 4 -52 2 l-52 -3 -38 -75 c-55 -108 -120 -280 -115 -301 3 -11 1 -19 -3
-19 -9 0 -13 -11 -24 -62 -5 -23 -12 -28 -37 -28 -29 0 -31 2 -25 28 16 69 82
254 126 352 l48 109 -37 4 -36 4 42 1 c40 2 42 3 88 82 56 96 171 251 250 337
31 35 54 67 50 73 -3 5 0 10 7 10 20 1 60 38 53 50 -3 5 0 8 7 5 7 -3 47 24
88 60 41 36 109 89 150 117 41 29 77 54 80 57 10 11 104 61 218 117 206 99
464 175 697 203 128 16 472 5 595 -18z m-607 -298 c-13 -2 -33 -2 -45 0 -13 2
-3 4 22 4 25 0 35 -2 23 -4z m80 0 c-7 -2 -19 -2 -25 0 -7 3 -2 5 12 5 14 0
19 -2 13 -5z m539 -13 c25 -16 28 -20 11 -17 -11 2 -27 8 -35 15 -8 6 -50 13
-93 15 l-80 3 82 2 c68 2 88 -2 115 -18z m-2159 3 c-7 -2 -19 -2 -25 0 -7 3
-2 5 12 5 14 0 19 -2 13 -5z m600 0 c-7 -2 -21 -2 -30 0 -10 3 -4 5 12 5 17 0
24 -2 18 -5z m1090 0 c-7 -2 -19 -2 -25 0 -7 3 -2 5 12 5 14 0 19 -2 13 -5z
m632 -3 c3 -6 -1 -7 -9 -4 -18 7 -21 14 -7 14 6 0 13 -4 16 -10z m698 -7 c-7
-2 -21 -2 -30 0 -10 3 -4 5 12 5 17 0 24 -2 18 -5z m-1794 -387 c-2 -2 -20 -6
-39 -10 -25 -4 -31 -3 -20 4 14 9 69 15 59 6z m1624 -3 c-7 -2 -21 -2 -30 0
-10 3 -4 5 12 5 17 0 24 -2 18 -5z m170 0 c-24 -2 -62 -2 -85 0 -24 2 -5 4 42
4 47 0 66 -2 43 -4z m-1145 -10 c-10 -2 -26 -2 -35 0 -10 3 -2 5 17 5 19 0 27
-2 18 -5z m70 0 c-10 -2 -26 -2 -35 0 -10 3 -2 5 17 5 19 0 27 -2 18 -5z m155
0 c-7 -2 -19 -2 -25 0 -7 3 -2 5 12 5 14 0 19 -2 13 -5z m90 0 c-7 -2 -21 -2
-30 0 -10 3 -4 5 12 5 17 0 24 -2 18 -5z m1484 1 c-3 -3 -12 -4 -19 -1 -8 3
-5 6 6 6 11 1 17 -2 13 -5z m-1174 -11 c-7 -2 -19 -2 -25 0 -7 3 -2 5 12 5 14
0 19 -2 13 -5z m-2763 -215 c0 -13 -58 13 -77 34 -17 19 -15 19 29 -3 26 -13
48 -27 48 -31z m-7 -155 c-7 -2 -19 -2 -25 0 -7 3 -2 5 12 5 14 0 19 -2 13 -5z
m774 1 c-3 -3 -12 -4 -19 -1 -8 3 -5 6 6 6 11 1 17 -2 13 -5z m235 -1 c-40 -2
-103 -2 -140 0 -37 2 -4 3 73 3 77 0 107 -2 67 -3z m443 -9 l50 -13 -56 5
c-32 3 -70 9 -85 14 -29 8 -29 8 6 8 19 0 58 -6 85 -14z m210 6 l20 -9 -20 0
c-11 0 -27 4 -35 9 -13 9 -13 10 0 9 8 0 24 -4 35 -9z m728 3 c-7 -2 -21 -2
-30 0 -10 3 -4 5 12 5 17 0 24 -2 18 -5z m234 1 c-3 -3 -12 -4 -19 -1 -8 3 -5
6 6 6 11 1 17 -2 13 -5z m101 -1 c-10 -2 -28 -2 -40 0 -13 2 -5 4 17 4 22 1
32 -1 23 -4z m-2068 -20 c0 -12 -3 -14 -8 -7 -4 7 -18 14 -32 17 -21 4 -20 4
8 6 24 1 32 -3 32 -16z m1304 8 c16 -3 32 -13 34 -21 4 -12 3 -13 -10 -3 -8 7
-39 17 -69 22 -40 6 -45 9 -19 9 19 0 48 -3 64 -7z m1164 2 c-10 -2 -28 -2
-40 0 -13 2 -5 4 17 4 22 1 32 -1 23 -4z m923 -2 c-8 -5 -20 -7 -28 -4 -21 8
-15 13 15 13 20 0 23 -3 13 -9z m144 -1 c28 -7 28 -8 -12 -9 -23 0 -45 4 -48
9 -7 11 16 11 60 0z m180 -5 c6 -2 -23 -4 -62 -4 -40 -1 -73 3 -73 7 0 8 112
5 135 -3z m-2378 -57 c-3 -8 -6 -5 -6 6 -1 11 2 17 5 13 3 -3 4 -12 1 -19z m3
-49 c0 -11 -4 -17 -10 -14 -5 3 -10 13 -10 21 0 8 5 14 10 14 6 0 10 -9 10
-21z m507 -25 c-3 -3 -12 -4 -19 -1 -8 3 -5 6 6 6 11 1 17 -2 13 -5z m823 -56
c0 -22 -15 -16 -30 12 -8 15 -7 17 10 13 11 -3 20 -14 20 -25z m-1 -75 c0 -29
-2 -33 -8 -18 -7 18 -4 55 5 55 2 0 4 -17 3 -37z m-2669 -53 c0 -11 -33 -14
-43 -4 -3 3 -3 12 0 20 4 10 10 11 24 3 10 -5 19 -14 19 -19z m1330 4 c0 -8
-4 -12 -10 -9 -5 3 -10 10 -10 16 0 5 5 9 10 9 6 0 10 -7 10 -16z m577 -10
c-3 -3 -12 -4 -19 -1 -8 3 -5 6 6 6 11 1 17 -2 13 -5z m-1479 -49 c-2 -3 -97
-6 -211 -7 -122 -1 -202 -6 -194 -11 7 -5 -4 -6 -28 -1 -22 4 -120 8 -217 8
-97 1 -180 5 -184 9 -4 4 183 7 416 7 233 0 421 -2 418 -5z m180 -2 c-26 -2
-71 -2 -100 0 -29 2 -8 3 47 3 55 0 79 -1 53 -3z m245 0 c-7 -2 -21 -2 -30 0
-10 3 -4 5 12 5 17 0 24 -2 18 -5z m261 -5 c-6 -9 -204 -7 -210 3 -3 5 44 8
105 6 60 -1 107 -5 105 -9z m204 -3 c3 -3 -38 -5 -91 -5 -53 0 -97 4 -97 9 0
9 179 5 188 -4z m1365 8 c-7 -2 -19 -2 -25 0 -7 3 -2 5 12 5 14 0 19 -2 13 -5z
m60 0 c-7 -2 -19 -2 -25 0 -7 3 -2 5 12 5 14 0 19 -2 13 -5z m204 0 c-7 -7
-118 -5 -126 2 -2 3 26 5 64 5 38 0 65 -3 62 -7z m65 -14 c16 -12 27 -23 24
-26 -5 -5 -76 35 -76 43 0 10 24 2 52 -17z m148 11 c0 -5 -2 -10 -4 -10 -3 0
-8 5 -11 10 -3 6 -1 10 4 10 6 0 11 -4 11 -10z m-1197 -7 c-13 -2 -35 -2 -50
0 -16 2 -5 4 22 4 28 0 40 -2 28 -4z m137 3 c0 -2 -9 -6 -20 -9 -11 -3 -18 -1
-14 4 5 9 34 13 34 5z m213 -3 c-7 -2 -21 -2 -30 0 -10 3 -4 5 12 5 17 0 24
-2 18 -5z m220 0 c-13 -2 -35 -2 -50 0 -16 2 -5 4 22 4 28 0 40 -2 28 -4z
m1050 0 c-13 -2 -35 -2 -50 0 -16 2 -5 4 22 4 28 0 40 -2 28 -4z m-4270 -10
c-7 -2 -19 -2 -25 0 -7 3 -2 5 12 5 14 0 19 -2 13 -5z m2352 -33 c3 -5 -3 -10
-15 -10 -12 0 -18 5 -15 10 3 6 10 10 15 10 5 0 12 -4 15 -10z m-2230 -59 c0
-18 10 -27 48 -41 51 -20 131 -85 134 -110 1 -8 5 -43 9 -77 l7 -61 163 -2
164 -1 0 31 c0 30 -1 30 -52 30 -38 0 -49 3 -38 10 11 7 12 10 2 10 -10 0 -10
3 2 15 15 15 50 10 40 -6 -3 -5 5 -9 18 -9 l23 1 -24 19 c-19 16 -39 20 -105
20 -45 1 -90 6 -101 13 -28 16 -32 76 -8 105 18 22 21 22 312 23 342 0 335 2
329 -87 -2 -34 2 -57 12 -70 15 -18 14 -18 -12 -1 -40 25 -129 23 -153 -3 -16
-18 -8 -30 9 -13 10 10 35 12 41 3 6 -9 -20 -15 -102 -25 -52 -7 -53 -7 -53
-41 l0 -34 175 0 175 0 0 41 c0 35 -3 40 -17 35 -17 -6 -17 -5 0 8 13 10 17
28 17 78 0 76 21 108 72 108 59 0 68 -19 68 -147 l0 -113 34 0 c19 0 38 -4 41
-10 4 -6 -10 -10 -34 -10 l-41 0 0 -91 c0 -105 15 -166 42 -175 10 -3 16 -10
13 -15 -4 -5 1 -9 10 -9 9 0 14 -4 11 -9 -17 -26 108 -27 151 -1 53 32 67 71
67 190 l1 105 -42 3 c-24 2 -43 8 -43 13 0 6 8 9 18 8 9 -1 29 -1 45 0 l27 1
0 112 c0 127 9 148 66 148 24 0 38 -8 54 -27 20 -25 21 -38 18 -128 l-3 -100
38 -3 37 -3 0 131 0 131 168 -3 c166 -3 168 -3 233 -35 65 -32 151 -112 154
-143 1 -8 5 -30 9 -47 7 -30 11 -33 47 -33 l40 0 -4 80 c-2 48 0 76 5 68 5 -8
6 1 3 22 -5 27 -1 42 15 63 44 56 124 21 119 -51 -4 -72 0 -95 16 -88 8 3 15
1 15 -4 0 -5 7 -7 15 -4 8 4 15 1 15 -5 0 -6 10 -12 23 -12 12 -1 -2 -6 -30
-11 -47 -8 -53 -12 -53 -34 0 -22 4 -24 48 -24 l48 0 18 50 c23 64 89 137 158
175 49 28 61 30 153 30 113 0 152 -15 229 -86 24 -21 47 -35 51 -31 5 4 5 2 2
-4 -3 -6 3 -29 14 -51 34 -68 40 -146 21 -244 -10 -50 -21 -84 -28 -82 -6 2
-17 -8 -24 -23 -8 -14 -22 -30 -32 -35 -10 -6 -17 -13 -14 -17 2 -4 -31 -23
-74 -42 -43 -18 -77 -38 -74 -42 3 -4 185 -8 405 -8 l400 0 -3 33 c-2 17 -7
31 -11 29 -5 -2 -15 5 -23 15 -8 11 -13 13 -14 6 0 -7 -5 -13 -11 -13 -5 0 -7
5 -3 11 4 7 0 9 -13 5 -13 -4 -20 -2 -20 7 0 9 7 12 19 9 10 -2 18 0 18 6 0 6
-8 13 -17 15 -10 3 1 5 25 6 24 0 41 5 38 10 -4 5 0 12 6 14 7 3 4 6 -7 6 -12
1 -26 -4 -32 -10 -9 -9 -16 -8 -28 5 -15 14 -15 16 -1 16 9 0 16 -6 17 -12 0
-10 2 -10 6 0 2 6 10 12 17 12 6 0 12 9 12 20 0 15 -5 18 -22 14 -12 -3 -25
-1 -28 5 -4 7 1 11 13 11 11 0 23 5 26 10 4 6 -5 10 -20 10 -20 0 -26 4 -21
16 3 8 2 13 -3 10 -4 -3 -16 3 -25 13 -16 17 -16 19 5 24 12 3 18 10 14 17 -4
6 -13 9 -21 6 -8 -3 -14 -1 -14 4 0 6 6 10 14 10 19 0 28 26 13 39 -7 5 -36
11 -64 13 -63 4 -60 16 4 16 27 0 72 0 101 1 l52 1 0 108 c0 95 2 111 20 130
25 26 76 29 102 5 15 -14 18 -32 18 -130 l0 -113 75 0 c43 0 75 -4 75 -10 0
-5 -23 -10 -51 -10 -27 0 -48 -4 -45 -9 3 -5 -1 -14 -9 -21 -13 -11 -13 -14 2
-26 10 -7 13 -14 6 -14 -12 0 -1 -56 19 -94 8 -15 12 -16 19 -5 6 10 9 4 9
-18 0 -17 6 -35 13 -40 6 -4 46 -10 87 -13 71 -5 75 -6 97 -39 13 -19 20 -37
16 -40 -5 -4 -19 -19 -33 -35 -19 -22 -21 -28 -7 -23 9 4 17 2 17 -3 0 -10
-21 -14 -49 -11 -7 2 -10 -2 -6 -8 3 -6 31 -11 61 -11 52 0 54 -1 54 -27 l0
-28 -102 2 c-96 1 -101 1 -73 -13 26 -12 27 -14 5 -9 -14 2 -36 5 -50 6 -23 0
-23 1 -5 9 23 10 10 12 -22 4 -13 -4 -20 -11 -16 -17 4 -6 0 -8 -10 -4 -10 4
-17 1 -18 -6 0 -7 -4 -2 -9 11 -12 29 -60 32 -60 3 0 -11 4 -21 8 -23 9 -3 -9
-138 -22 -173 -20 -52 -36 -96 -36 -101 0 -3 28 -4 63 -2 l62 3 9 38 c8 30 7
40 -5 48 -11 7 -11 9 4 9 9 0 18 8 19 18 1 9 2 24 3 32 0 8 4 20 8 26 4 7 0
17 -8 24 -13 10 -15 9 -15 -10 0 -19 -2 -20 -15 -10 -26 21 -18 40 14 36 31
-3 41 8 41 44 0 24 15 28 75 21 47 -6 48 -7 19 -13 -28 -6 -32 -12 -38 -50 -3
-24 -4 -53 -2 -65 3 -13 -1 -24 -11 -27 -9 -4 -13 -14 -10 -26 3 -11 2 -20 -3
-20 -4 0 -11 -11 -14 -24 -3 -13 -9 -31 -12 -40 -5 -12 1 -16 22 -17 l29 -1
-29 -7 c-25 -5 -32 -15 -51 -71 -28 -81 -90 -221 -122 -278 l-25 -42 24 -1
c22 -2 22 -2 1 -6 -12 -2 -27 -11 -33 -18 -19 -23 -80 -127 -80 -136 0 -5 -3
-9 -8 -9 -4 0 -21 -21 -39 -48 -17 -26 -51 -70 -77 -99 -25 -28 -46 -53 -46
-57 0 -3 30 -7 68 -9 l67 -3 -75 -2 c-75 -2 -75 -2 -118 -47 -25 -26 -40 -50
-36 -57 4 -7 3 -8 -4 -4 -9 6 -93 -60 -122 -95 -3 -3 -52 -40 -110 -82 -58
-42 -114 -83 -125 -91 -18 -14 -10 -15 89 -16 60 0 107 -2 104 -5 -2 -3 -56
-5 -120 -6 -111 0 -116 -1 -174 -34 -32 -19 -54 -35 -49 -36 34 -4 51 -3 57 6
5 6 8 5 8 -4 0 -11 3 -11 17 0 15 13 15 12 3 -8 -10 -15 -19 -19 -29 -14 -14
7 -86 7 -101 1 -3 -1 -9 -2 -14 -1 -5 1 -6 -5 -2 -14 3 -10 2 -14 -5 -10 -14
9 -61 -3 -55 -14 3 -5 0 -8 -7 -7 -16 1 -151 -45 -157 -54 -3 -4 -31 -13 -62
-20 -49 -9 -58 -15 -59 -33 -1 -18 -2 -19 -6 -4 -3 11 -11 16 -21 13 -52 -16
-198 -46 -267 -55 -44 -6 -102 -13 -130 -17 -72 -9 -315 -5 -420 8 -108 13
-112 13 -150 4 -22 -5 -25 -4 -10 3 18 8 17 9 -10 16 -16 4 -66 16 -110 27
-44 12 -87 21 -95 22 -9 1 -21 5 -28 9 -6 5 -40 17 -74 28 -107 35 -394 172
-418 200 -3 3 -39 28 -80 56 -100 67 -197 147 -296 244 l-82 79 -76 1 c-89 2
-92 2 -101 10 -3 4 32 4 79 2 47 -3 86 -3 86 0 0 3 -23 32 -50 63 -174 199
-345 534 -411 804 -12 52 -26 97 -30 100 -4 3 -7 12 -7 20 3 43 -4 61 -24 70
-19 7 -14 9 24 9 50 1 51 1 64 -71 3 -21 10 -36 14 -33 4 2 16 -3 26 -11 18
-15 18 -15 -5 -10 -21 4 -23 2 -17 -27 4 -18 11 -33 16 -35 5 -2 7 -9 4 -16
-9 -23 73 -243 141 -380 34 -69 45 -82 70 -87 23 -5 25 -7 8 -8 -13 0 -23 -4
-23 -7 0 -7 103 -165 126 -194 7 -8 47 -57 89 -109 l77 -93 49 4 c27 3 49 1
49 -3 0 -5 -19 -9 -42 -9 l-43 -1 73 -69 c165 -158 403 -314 605 -396 71 -28
71 -28 63 -9 -3 8 -1 15 4 15 6 0 10 -9 10 -19 0 -22 69 -53 119 -55 16 -1 26
-5 23 -10 -3 -5 2 -7 11 -3 10 3 17 3 17 -1 0 -10 141 -41 195 -44 22 -1 51 2
65 6 24 8 24 7 5 -7 -18 -14 -15 -15 46 -22 86 -9 114 -5 113 18 -2 20 -3 20
31 7 19 -7 25 -15 21 -27 -6 -15 9 -15 171 -10 180 6 276 19 436 58 l88 21 -2
50 c-2 27 -6 51 -10 54 -4 2 -20 -1 -36 -7 -27 -10 -244 -57 -293 -64 -14 -1
-47 -3 -73 -4 -27 0 -46 -4 -44 -8 3 -5 -47 -7 -111 -5 -82 2 -113 0 -102 -7
8 -6 10 -11 5 -11 -6 0 -15 4 -20 9 -6 6 -41 13 -79 17 -58 6 -68 5 -64 -7 4
-9 -4 -19 -19 -26 -19 -9 -25 -9 -29 2 -3 8 -13 11 -22 7 -15 -5 -15 -4 -3 11
11 15 10 18 -11 26 -49 18 -115 23 -139 10 -22 -11 -23 -11 -11 4 12 14 8 17
-30 26 -24 6 -85 25 -137 42 -75 25 -96 28 -102 17 -7 -10 -9 -9 -9 4 0 17
-53 41 -66 30 -4 -4 -4 -2 -1 4 3 6 -28 26 -75 49 -70 33 -172 91 -242 137
-107 72 -285 230 -381 340 -31 35 -86 107 -123 160 -58 84 -71 97 -97 99 l-30
2 28 4 28 4 -20 32 c-30 51 -106 206 -132 272 -12 33 -29 65 -37 71 -9 8 -10
13 -2 16 8 2 4 21 -10 58 -12 30 -21 56 -21 58 6 17 -2 33 -14 29 -8 -4 -17
-2 -20 3 -4 6 1 10 10 10 13 0 15 6 10 32 -7 31 -40 67 -60 67 -5 0 0 -8 13
-18 23 -20 31 -38 11 -25 -8 4 -9 0 -4 -15 8 -25 -16 -29 -35 -6 -10 12 -10
15 4 15 9 0 16 5 16 10 0 6 -7 10 -15 10 -8 0 -15 6 -16 13 0 6 -2 27 -3 45
-2 19 1 32 8 32 8 0 8 2 0 8 -15 9 -21 53 -11 70 6 8 2 12 -10 12 -10 0 -31 9
-48 20 -36 24 -71 26 -79 4 -10 -27 -7 -33 27 -42 25 -6 33 -14 35 -35 2 -19
-1 -27 -12 -27 -9 0 -16 5 -16 10 0 6 6 10 13 10 6 0 -1 7 -17 15 -34 18 -36
18 -36 3 0 -22 -33 -48 -62 -48 -23 0 -28 4 -28 25 0 19 5 25 23 26 20 1 19 2
-8 14 l-30 14 28 1 c26 0 27 1 27 62 0 44 -5 67 -17 80 -16 18 -16 18 0 12 14
-5 17 0 17 22 0 16 4 36 10 44 6 9 5 17 -3 22 -9 5 -8 11 4 20 21 16 31 46 18
50 -10 3 -17 26 -18 61 -1 9 -9 17 -18 18 -11 0 -13 3 -5 6 6 2 12 21 12 41 0
50 15 98 42 139 26 38 106 81 159 85 32 3 35 6 34 31 -1 16 3 26 9 24 6 -2 11
-14 11 -26z m2240 18 c4 -5 32 -9 63 -10 61 0 51 -12 -21 -24 -21 -3 -35 -10
-32 -16 4 -5 -1 -9 -9 -9 -9 0 -16 7 -16 15 0 10 -10 15 -27 16 -16 0 -22 3
-15 6 6 2 12 10 12 17 0 14 37 19 45 5z m312 -117 c1 -12 -2 -22 -7 -22 -6 0
-10 4 -10 9 0 5 -3 17 -7 27 -4 11 -2 15 7 12 7 -2 15 -14 17 -26z m-2897 -38
c0 -2 -7 -4 -15 -4 -8 0 -15 4 -15 10 0 5 7 7 15 4 8 -4 15 -8 15 -10z m4330
-14 c0 -5 -2 -10 -4 -10 -3 0 -8 5 -11 10 -3 6 -1 10 4 10 6 0 11 -4 11 -10z
m-2765 -20 c3 -5 1 -10 -4 -10 -6 0 -11 5 -11 10 0 6 2 10 4 10 3 0 8 -4 11
-10z m2755 -20 c0 -5 -5 -10 -11 -10 -5 0 -7 5 -4 10 3 6 8 10 11 10 2 0 4 -4
4 -10z m-4455 -10 c3 -5 1 -10 -4 -10 -6 0 -11 5 -11 10 0 6 2 10 4 10 3 0 8
-4 11 -10z m824 -12 c-10 -19 -60 -23 -109 -8 l-25 7 30 7 c17 4 35 9 40 11 6
2 24 3 42 2 28 0 31 -3 22 -19z m69 -6 c5 -16 -9 -14 -33 4 -19 14 -19 14 5
11 13 -2 26 -9 28 -15z m1872 3 c7 -8 9 -15 6 -15 -4 0 -14 7 -22 15 -9 8 -11
15 -6 15 5 0 15 -7 22 -15z m1705 -5 c3 -5 2 -10 -4 -10 -5 0 -13 5 -16 10 -3
6 -2 10 4 10 5 0 13 -4 16 -10z m-2635 -82 c0 -4 -7 -8 -15 -8 -8 0 -15 4 -15
8 0 5 7 9 15 9 8 0 15 -4 15 -9z m2083 -5 c-35 -2 -91 -2 -125 0 -35 2 -7 3
62 3 69 0 97 -1 63 -3z m680 0 c-7 -2 -21 -2 -30 0 -10 3 -4 5 12 5 17 0 24
-2 18 -5z m-126 -119 c-3 -3 -12 -4 -19 -1 -8 3 -5 6 6 6 11 1 17 -2 13 -5z
m-802 -152 c0 -18 -20 -15 -23 4 -3 10 1 15 10 12 7 -3 13 -10 13 -16z m-3528
-118 c-3 -3 -12 -4 -19 -1 -8 3 -5 6 6 6 11 1 17 -2 13 -5z m4596 -1 c-7 -2
-19 -2 -25 0 -7 3 -2 5 12 5 14 0 19 -2 13 -5z m-4755 -24 c-16 -4 -40 -4 -55
1 -22 6 -16 8 27 7 43 0 49 -1 28 -8z m4657 -69 c-11 -5 -27 -9 -35 -9 -13 -1
-13 0 0 9 8 5 24 9 35 9 l20 0 -20 -9z m-165 -35 c0 -1 -12 -2 -26 -2 -17 0
-22 2 -13 7 10 7 39 3 39 -5z m177 -11 c-3 -3 -12 -4 -19 -1 -8 3 -5 6 6 6 11
1 17 -2 13 -5z m-37 -76 c0 -10 -18 -9 -45 2 -16 6 -14 8 13 7 17 0 32 -4 32
-9z m0 -48 c0 -5 -2 -10 -4 -10 -3 0 -8 5 -11 10 -3 6 -1 10 4 10 6 0 11 -4
11 -10z m-4107 -47 c-7 -2 -21 -2 -30 0 -10 3 -4 5 12 5 17 0 24 -2 18 -5z
m-10 -20 c-7 -2 -21 -2 -30 0 -10 3 -4 5 12 5 17 0 24 -2 18 -5z m-140 -70
c-7 -2 -19 -2 -25 0 -7 3 -2 5 12 5 14 0 19 -2 13 -5z m4270 0 c-13 -2 -35 -2
-50 0 -16 2 -5 4 22 4 28 0 40 -2 28 -4z m-4233 -403 c0 -5 -2 -10 -4 -10 -3
0 -8 5 -11 10 -3 6 -1 10 4 10 6 0 11 -4 11 -10z m4693 3 c-7 -2 -19 -2 -25 0
-7 3 -2 5 12 5 14 0 19 -2 13 -5z m-718 -71 c-3 -3 -11 0 -18 7 -9 10 -8 11 6
5 10 -3 15 -9 12 -12z m5 -60 c0 -5 -7 -9 -15 -9 -8 0 -12 4 -9 9 3 4 9 8 15
8 5 0 9 -4 9 -8z m0 -57 c0 -9 -6 -12 -16 -8 -13 5 -13 7 -2 14 17 11 18 11
18 -6z m-4117 -192 c-7 -2 -21 -2 -30 0 -10 3 -4 5 12 5 17 0 24 -2 18 -5z
m100 0 c-7 -2 -21 -2 -30 0 -10 3 -4 5 12 5 17 0 24 -2 18 -5z m75 0 c-10 -2
-26 -2 -35 0 -10 3 -2 5 17 5 19 0 27 -2 18 -5z m3845 0 c-13 -2 -35 -2 -50 0
-16 2 -5 4 22 4 28 0 40 -2 28 -4z m210 0 c-23 -2 -64 -2 -90 0 -26 2 -7 3 42
3 50 0 71 -1 48 -3z m164 1 c-3 -3 -12 -4 -19 -1 -8 3 -5 6 6 6 11 1 17 -2 13
-5z m66 -1 c-7 -2 -19 -2 -25 0 -7 3 -2 5 12 5 14 0 19 -2 13 -5z m65 0 c-10
-2 -26 -2 -35 0 -10 3 -2 5 17 5 19 0 27 -2 18 -5z m-765 -160 c-7 -2 -21 -2
-30 0 -10 3 -4 5 12 5 17 0 24 -2 18 -5z m-2973 -53 c0 -5 -4 -10 -9 -10 -6 0
-13 5 -16 10 -3 6 1 10 9 10 9 0 16 -4 16 -10z m-10 -60 c0 -5 -4 -10 -10 -10
-5 0 -10 5 -10 10 0 6 5 10 10 10 6 0 10 -4 10 -10z m2937 4 c-3 -3 -12 -4
-19 -1 -8 3 -5 6 6 6 11 1 17 -2 13 -5z m-90 -10 c-3 -3 -12 -4 -19 -1 -8 3
-5 6 6 6 11 1 17 -2 13 -5z m-2734 -121 c-29 -2 -78 -2 -110 0 -32 2 -8 3 52
3 61 0 87 -1 58 -3z m115 0 c-10 -2 -28 -2 -40 0 -13 2 -5 4 17 4 22 1 32 -1
23 -4z m255 0 c-7 -2 -21 -2 -30 0 -10 3 -4 5 12 5 17 0 24 -2 18 -5z m75 0
c-10 -2 -26 -2 -35 0 -10 3 -2 5 17 5 19 0 27 -2 18 -5z m1962 -33 c0 -5 -5
-10 -11 -10 -5 0 -7 5 -4 10 3 6 8 10 11 10 2 0 4 -4 4 -10z m-50 -80 c0 -5
-2 -10 -4 -10 -3 0 -8 5 -11 10 -3 6 -1 10 4 10 6 0 11 -4 11 -10z m-42 -26
c11 4 23 2 27 -4 3 -5 -1 -10 -9 -10 -9 0 -16 -5 -16 -11 0 -6 -7 -3 -16 5 -8
9 -25 16 -37 17 -21 0 -21 1 -2 8 11 5 23 4 26 -1 4 -6 16 -7 27 -4z m-674
-12 c2 -4 -4 -8 -14 -8 -10 0 -16 4 -14 8 3 4 9 8 14 8 5 0 11 -4 14 -8z m44
-29 c-10 -2 -26 -2 -35 0 -10 3 -2 5 17 5 19 0 27 -2 18 -5z m-275 -20 c-7 -2
-19 -2 -25 0 -7 3 -2 5 12 5 14 0 19 -2 13 -5z m-845 -15 c7 -7 12 -19 12 -27
0 -10 -3 -12 -8 -5 -4 6 -15 13 -24 17 -21 7 -24 27 -5 27 7 0 18 -5 25 -12z
m950 -115 c-15 -2 -42 -2 -60 0 -18 2 -6 4 27 4 33 0 48 -2 33 -4z m-935 -50
c-7 -2 -19 -2 -25 0 -7 3 -2 5 12 5 14 0 19 -2 13 -5z m100 0 c-7 -2 -19 -2
-25 0 -7 3 -2 5 12 5 14 0 19 -2 13 -5z m531 -12 c3 -4 -6 -6 -19 -3 -14 2
-25 6 -25 8 0 8 39 4 44 -5z m729 2 c-13 -2 -33 -2 -45 0 -13 2 -3 4 22 4 25
0 35 -2 23 -4z"/>
<path d="M2163 2939 c-22 -6 -33 -16 -33 -28 0 -16 4 -17 35 -7 23 7 35 17 35
28 0 10 -1 18 -2 17 -2 0 -18 -5 -35 -10z"/>
<path d="M2570 2927 c0 -16 3 -18 12 -9 7 7 17 8 30 1 12 -6 18 -6 18 1 0 5
12 10 28 11 68 1 59 15 -11 16 -71 0 -77 -1 -77 -20z"/>
<path d="M2758 2943 c7 -3 16 -2 19 1 4 3 -2 6 -13 5 -11 0 -14 -3 -6 -6z"/>
<path d="M2906 2943 c5 -5 12 -12 15 -16 3 -5 9 -2 12 7 5 12 0 16 -15 16 -12
0 -17 -3 -12 -7z"/>
<path d="M3020 2941 c0 -5 8 -12 18 -15 9 -3 -4 -4 -30 -2 -26 2 -45 0 -42 -5
8 -14 88 -11 103 4 11 10 12 9 6 -1 -5 -10 -1 -13 16 -10 13 1 24 10 24 18 0
11 -13 16 -47 18 -27 2 -48 -1 -48 -7z"/>
<path d="M4620 2930 c0 -13 5 -20 13 -17 6 2 12 10 12 17 0 7 -6 15 -12 18 -8
2 -13 -5 -13 -18z"/>
<path d="M5050 2941 c-77 -24 -129 -64 -169 -131 -40 -68 -50 -65 244 -65 222
0 265 2 265 14 0 26 -60 109 -100 136 -72 50 -167 68 -240 46z"/>
<path d="M2265 2930 c-3 -5 -1 -10 4 -10 6 0 11 5 11 10 0 6 -2 10 -4 10 -3 0
-8 -4 -11 -10z"/>
<path d="M3320 2918 c0 -13 -2 -57 -5 -100 -3 -58 -1 -77 9 -81 20 -8 26 2 26
45 0 24 -4 37 -10 33 -5 -3 -10 1 -10 10 0 9 5 13 10 10 6 -4 10 15 10 49 0
43 -3 56 -15 56 -9 0 -15 -9 -15 -22z"/>
<path d="M3750 2840 c0 -82 3 -100 15 -100 12 0 15 18 15 100 0 82 -3 100 -15
100 -12 0 -15 -18 -15 -100z"/>
<path d="M3970 2933 c0 -5 -2 -50 -5 -100 l-5 -93 40 0 c22 0 40 -4 40 -10 0
-5 -13 -10 -29 -10 -17 0 -32 -4 -35 -9 -3 -5 -7 -91 -8 -192 -3 -168 -2 -184
15 -187 10 -2 17 3 17 11 0 31 37 49 102 48 105 0 215 37 265 91 39 41 63 108
63 176 l0 63 -92 -2 c-51 -1 -97 -4 -102 -7 -21 -12 -76 -11 -76 2 0 9 27 13
103 15 144 2 169 8 161 35 -19 66 -88 134 -163 161 -46 16 -291 22 -291 8z
m125 -203 c3 -5 2 -10 -4 -10 -5 0 -13 5 -16 10 -3 6 -2 10 4 10 5 0 13 -4 16
-10z m15 -172 c0 -58 -1 -61 -13 -38 -7 14 -10 27 -6 30 5 3 6 20 4 38 -2 18
0 32 5 32 6 0 10 -28 10 -62z m5 -77 c3 -5 1 -12 -5 -16 -5 -3 -10 1 -10 9 0
18 6 21 15 7z"/>
<path d="M6060 2840 c0 -80 3 -100 14 -100 12 0 15 20 15 100 0 82 -2 100 -14
100 -12 0 -15 -19 -15 -100z"/>
<path d="M2988 2853 c7 -3 16 -2 19 1 4 3 -2 6 -13 5 -11 0 -14 -3 -6 -6z"/>
<path d="M2156 2829 c-8 -12 -12 -27 -9 -34 7 -19 43 13 43 37 0 24 -16 23
-34 -3z"/>
<path d="M4635 2842 c-16 -12 -16 -32 0 -32 8 0 15 9 15 20 0 22 -1 23 -15 12z"/>
<path d="M2350 2775 c0 -16 6 -25 15 -25 9 0 15 9 15 25 0 16 -6 25 -15 25 -9
0 -15 -9 -15 -25z"/>
<path d="M2830 2586 c0 -118 -3 -221 -6 -230 -4 -11 0 -16 12 -16 18 0 19 12
22 171 2 130 0 169 -9 163 -9 -5 -10 -1 -4 17 4 13 10 43 12 67 4 34 2 42 -11
42 -14 0 -16 -24 -16 -214z m17 32 c-3 -8 -6 -5 -6 6 -1 11 2 17 5 13 3 -3 4
-12 1 -19z"/>
<path d="M2050 2764 c0 -31 23 -28 28 4 2 15 -2 22 -12 22 -11 0 -16 -9 -16
-26z"/>
<path d="M4612 2768 c5 -34 38 -37 38 -4 0 20 -5 26 -21 26 -15 0 -20 -5 -17
-22z"/>
<path d="M2266 2762 c-3 -5 1 -9 9 -9 8 0 12 4 9 9 -3 4 -7 8 -9 8 -2 0 -6 -4
-9 -8z"/>
<path d="M4998 2732 l-148 -3 -1 -27 c-6 -153 70 -261 209 -296 43 -11 47 -15
50 -44 5 -45 32 -43 32 2 0 32 2 34 43 40 84 14 173 89 203 174 17 48 18 141
2 147 -20 6 -230 10 -390 7z"/>
<path d="M2058 2723 c7 -3 16 -2 19 1 4 3 -2 6 -13 5 -11 0 -14 -3 -6 -6z"/>
<path d="M2430 2717 c0 -7 -9 -23 -20 -35 -14 -14 -16 -22 -8 -23 7 0 5 -4 -4
-7 -16 -7 -16 -11 9 -57 35 -65 41 -187 11 -219 -10 -11 -18 -23 -18 -28 0 -4
39 -9 88 -10 l87 -2 -75 -5 c-41 -3 -70 -9 -65 -12 17 -11 291 -11 280 0 -6 6
-37 12 -70 14 -46 2 -39 4 33 5 l92 2 0 58 c0 32 -5 63 -12 70 -9 9 -9 12 -1
12 8 0 12 35 12 115 -1 68 -5 115 -10 115 -6 0 -8 4 -5 8 3 5 -22 9 -54 9 -33
1 -60 -2 -60 -7 0 -4 -14 -7 -32 -8 -23 -1 -28 2 -18 8 10 7 -15 10 -72 10
-66 0 -88 -3 -88 -13z m310 -217 c0 -5 -12 -10 -27 -9 -25 0 -26 1 -8 9 27 12
35 12 35 0z m-5 -100 c3 -5 1 -10 -4 -10 -6 0 -11 5 -11 10 0 6 2 10 4 10 3 0
8 -4 11 -10z"/>
<path d="M4623 2703 c3 -34 21 -33 24 2 1 15 -3 25 -12 25 -9 0 -13 -10 -12
-27z"/>
<path d="M4701 2609 c0 -113 1 -120 19 -114 10 3 21 2 24 -4 3 -5 -5 -12 -19
-15 -14 -4 -25 -13 -25 -21 0 -16 16 -20 63 -16 15 1 27 -1 27 -6 0 -14 -16
-34 -26 -32 -5 1 -21 1 -36 0 -25 -1 -28 -5 -28 -36 0 -31 3 -35 28 -36 l27
-1 -25 -8 c-17 -5 0 -8 53 -8 42 -1 77 3 77 9 0 5 42 9 96 9 110 0 117 10 34
45 -117 49 -195 165 -195 287 l0 68 -47 0 -46 0 -1 -121z m49 -79 c0 -5 -2
-10 -4 -10 -3 0 -8 5 -11 10 -3 6 -1 10 4 10 6 0 11 -4 11 -10z"/>
<path d="M3003 2712 l-93 -3 0 -109 c0 -77 4 -110 13 -113 10 -4 10 -6 0 -6
-20 -1 -15 -35 7 -54 11 -9 27 -14 36 -10 14 5 15 3 5 -16 -9 -16 -18 -20 -37
-15 -23 6 -25 4 -22 -17 l3 -24 173 -3 172 -2 0 138 c0 94 -4 142 -12 150 -9
9 -9 12 0 12 7 0 12 16 12 41 l0 40 -82 -3 c-46 -2 -125 -4 -175 -6z"/>
<path d="M3321 2569 c-1 -83 -4 -168 -7 -190 l-7 -39 61 0 c34 0 63 -3 65 -7
3 -5 -19 -8 -49 -8 -50 0 -57 -3 -80 -32 -14 -18 -32 -33 -40 -33 -9 0 -12 -5
-8 -11 5 -8 1 -8 -14 0 -27 14 -276 15 -267 1 4 -6 -18 3 -48 19 -71 38 -106
41 -141 13 -27 -21 -38 -22 -202 -22 -148 0 -174 -2 -174 -15 0 -8 8 -15 18
-16 10 0 12 -3 5 -6 -18 -7 -16 -33 2 -33 9 0 26 -7 39 -15 21 -14 24 -14 29
0 4 9 1 15 -9 15 -8 0 -23 8 -32 17 -16 16 -16 16 0 11 9 -4 22 0 29 8 10 12
14 12 20 2 5 -8 2 -15 -9 -20 -15 -6 -14 -7 4 -7 11 -1 26 5 33 12 11 10 11 8
2 -10 -6 -12 -8 -28 -5 -37 4 -10 0 -13 -13 -10 -10 2 -24 0 -31 -5 -12 -7
-11 -14 2 -40 18 -33 11 -42 -10 -13 -12 17 -16 18 -54 21 -11 0 -20 8 -20 17
0 11 6 15 18 12 11 -3 19 0 19 7 0 16 -27 8 -46 -14 -10 -12 -15 -13 -18 -3
-4 11 -53 18 -53 7 0 -3 9 -40 20 -83 61 -233 189 -484 351 -687 57 -72 179
-200 231 -242 14 -12 52 -42 84 -68 66 -54 210 -149 269 -177 22 -11 56 -28
75 -38 19 -11 45 -19 58 -20 12 0 22 -4 22 -9 0 -35 490 -168 544 -148 7 3 18
1 23 -4 15 -15 347 -12 466 5 126 18 247 46 247 57 0 9 -43 18 -115 22 -31 2
-19 4 33 5 50 1 90 -3 102 -10 16 -10 32 -8 92 11 106 34 331 143 316 153 -10
5 -8 8 5 8 34 0 187 92 252 151 11 10 54 48 96 83 42 36 96 89 120 118 24 29
49 57 56 61 7 4 13 15 13 22 0 8 4 15 10 15 5 0 23 19 40 42 23 32 27 44 18
51 -9 6 -8 7 4 4 12 -4 30 16 69 76 52 80 147 271 174 347 l14 39 -62 4 -62 3
68 2 c37 1 67 5 67 10 0 4 9 40 20 81 16 60 17 77 7 89 -7 10 -8 13 -1 9 7 -4
14 0 18 8 3 8 0 15 -7 15 -7 0 -4 5 6 11 9 5 17 21 17 34 0 15 6 25 15 25 8 0
12 6 9 14 -3 9 -15 13 -30 10 -13 -2 -33 0 -44 6 -11 6 -26 7 -33 3 -6 -4 -19
-6 -29 -5 -9 2 -19 -2 -23 -8 -5 -7 0 -11 11 -10 30 3 44 1 44 -9 0 -13 -52 0
-75 18 -11 9 -19 24 -17 34 2 12 -1 17 -11 15 -9 -2 -16 1 -17 7 0 5 13 11 29
12 21 2 31 -2 34 -15 4 -13 5 -11 6 5 l1 22 -242 0 c-134 -1 -237 -3 -230 -6
6 -2 12 -19 12 -37 0 -26 -5 -34 -27 -42 -24 -8 -25 -10 -9 -23 14 -12 16 -12
10 3 -4 10 -1 16 9 16 8 0 20 7 27 15 9 11 16 13 24 5 13 -13 29 -13 21 -1 -3
5 10 9 30 8 31 -2 33 -3 18 -15 -13 -10 -19 -10 -22 -1 -2 7 -11 2 -23 -12
-11 -13 -17 -19 -14 -12 4 6 1 15 -5 18 -16 11 -22 -1 -10 -24 14 -24 -3 -39
-24 -21 -10 9 -15 9 -15 1 0 -7 -8 -8 -26 -1 -33 13 -54 13 -34 0 11 -7 6 -9
-17 -7 -31 2 -48 17 -20 17 6 0 4 5 -6 11 -21 12 -40 2 -33 -17 3 -8 1 -14 -5
-14 -6 0 -7 -5 -3 -11 3 -6 -5 -3 -20 6 -25 16 -34 44 -19 58 3 4 11 3 17 -2
6 -5 23 -7 39 -4 22 4 25 8 16 19 -8 10 -40 14 -124 14 -106 0 -113 1 -123 23
l-11 22 -6 -22 c-7 -21 -12 -22 -169 -25 -221 -4 -260 1 -293 36 l-26 28 -24
-31 -24 -31 -273 0 c-252 0 -274 1 -289 18 -10 10 -17 24 -17 30 0 7 -9 12
-20 12 -11 0 -20 -6 -20 -13 0 -28 -36 -47 -88 -47 -46 0 -54 3 -74 30 -21 28
-26 30 -97 32 l-76 2 80 5 c68 5 80 9 79 24 0 9 -1 69 -2 132 -2 95 -5 115
-17 115 -11 0 -15 -12 -15 -47 -1 -27 -7 -66 -15 -87 -8 -22 -12 -43 -9 -47 2
-5 -25 -22 -62 -40 -160 -77 -302 -9 -312 151 -2 36 -9 71 -14 78 -7 8 -7 12
1 12 7 0 11 20 11 50 0 37 -4 50 -14 50 -12 0 -15 -27 -15 -151z m64 -299 c-3
-5 -12 -10 -20 -10 -8 0 -17 5 -20 10 -4 6 5 10 20 10 15 0 24 -4 20 -10z
m-455 -32 c0 -5 -7 -3 -15 6 -8 8 -15 18 -15 22 0 3 7 1 15 -6 8 -7 15 -17 15
-22z m499 -7 c-6 -2 -16 2 -22 9 -9 10 -9 11 1 6 7 -4 12 -2 12 6 0 9 3 9 10
-2 6 -10 6 -16 -1 -19z m-962 13 c-3 -3 -12 -4 -19 -1 -8 3 -5 6 6 6 11 1 17
-2 13 -5z m573 2 c0 -2 -9 -6 -20 -9 -11 -3 -18 -1 -14 4 5 9 34 13 34 5z
m-355 -16 c18 -8 17 -9 -7 -9 -15 -1 -30 4 -33 9 -7 12 12 12 40 0z m115 1 c0
-6 -5 -13 -12 -17 -6 -4 -8 -3 -4 4 3 6 -3 12 -16 15 -20 4 -19 4 5 6 15 0 27
-3 27 -8z m2394 1 c2 -4 -7 -9 -20 -10 -15 -1 -22 2 -19 8 7 12 32 13 39 2z
m93 -21 c0 -11 -5 -17 -9 -15 -5 3 -6 9 -3 14 3 4 -1 11 -7 13 -8 4 -7 6 4 6
11 1 16 -6 15 -18z m423 15 c0 -11 -19 -15 -25 -6 -3 5 1 10 9 10 9 0 16 -2
16 -4z m-792 -31 c-3 -3 -9 2 -12 12 -6 14 -5 15 5 6 7 -7 10 -15 7 -18z m247
5 c3 -6 -1 -7 -9 -4 -18 7 -21 14 -7 14 6 0 13 -4 16 -10z m-2140 -18 c-3 -3
-11 0 -18 7 -9 10 -8 11 6 5 10 -3 15 -9 12 -12z m1865 -3 c0 -6 -4 -7 -10 -4
-5 3 -10 11 -10 16 0 6 5 7 10 4 6 -3 10 -11 10 -16z m164 7 c-21 -15 -30 -14
-19 3 3 6 14 11 23 11 13 0 13 -2 -4 -14z m56 -1 c7 -8 8 -15 2 -15 -5 0 -15
7 -22 15 -7 8 -8 15 -2 15 5 0 15 -7 22 -15z m704 6 c3 -5 -1 -11 -9 -14 -9
-4 -12 -1 -8 9 6 16 10 17 17 5z m143 -32 c28 -17 43 -4 17 16 -10 8 -14 15
-8 15 16 0 37 -27 30 -39 -4 -5 4 -11 16 -13 12 -2 23 -9 24 -16 1 -7 0 -8 -2
-4 -3 5 -18 8 -34 6 -21 -3 -32 2 -40 16 -6 11 -18 20 -28 20 -15 0 -15 -2 -2
-10 13 -8 12 -10 -2 -10 -11 0 -18 7 -18 18 0 10 -6 24 -12 32 -13 14 -10 12
59 -31z m-2524 24 c-7 -2 -21 -2 -30 0 -10 3 -4 5 12 5 17 0 24 -2 18 -5z
m1792 -11 c-3 -3 -11 0 -18 7 -9 10 -8 11 6 5 10 -3 15 -9 12 -12z m408 0
c-10 -11 -22 -16 -28 -14 -5 3 -3 8 4 10 11 4 11 6 0 13 -10 6 -6 9 14 9 26 0
26 -1 10 -18z m223 -7 c1 -8 -2 -13 -7 -9 -5 3 -9 12 -9 21 0 19 13 9 16 -12z
m-3181 -3 c-3 -3 -11 0 -18 7 -9 10 -8 11 6 5 10 -3 15 -9 12 -12z m2631 -7
c-16 -17 -36 -20 -36 -6 0 10 17 19 38 20 10 1 10 -3 -2 -14z m244 3 c0 -10
-91 -10 -108 1 -7 4 12 8 48 7 33 0 60 -3 60 -8z m-580 -16 c0 -5 -13 -9 -30
-10 -16 0 -30 4 -30 9 0 5 14 9 30 9 17 0 30 -4 30 -8z m33 -7 c-3 -9 -8 -14
-10 -11 -3 3 -2 9 2 15 9 16 15 13 8 -4z m63 0 c-11 -8 -22 -12 -25 -9 -6 6
19 24 34 24 6 -1 1 -7 -9 -15z m337 8 c-7 -2 -19 -2 -25 0 -7 3 -2 5 12 5 14
0 19 -2 13 -5z m-3028 -33 c-6 -9 -9 -9 -16 1 -10 17 0 34 13 21 6 -6 7 -16 3
-22z m640 20 c19 -8 19 -9 -2 -9 -12 -1 -25 4 -28 9 -7 12 2 12 30 0z m1879
-5 c3 -9 12 -12 22 -8 12 4 15 3 10 -5 -11 -18 -34 -14 -46 8 -6 11 -7 20 -1
20 5 0 11 -7 15 -15z m573 3 c3 6 19 11 36 11 31 -2 31 -2 5 -6 -16 -2 -28 -9
-28 -14 0 -5 -9 -9 -20 -9 -11 0 -20 6 -20 13 0 9 -3 8 -9 -2 -5 -8 -11 -9
-15 -3 -9 15 17 21 33 8 11 -8 15 -8 18 2z m-2930 -14 c-3 -3 -12 -4 -19 -1
-8 3 -5 6 6 6 11 1 17 -2 13 -5z m2543 -9 c-7 -9 -15 -13 -19 -10 -3 3 1 10 9
15 21 14 24 12 10 -5z m40 5 c-13 -8 -12 -10 3 -10 9 0 17 -4 17 -10 0 -12
-10 -13 -29 -1 -15 10 -7 31 12 31 7 0 6 -4 -3 -10z m-211 -39 c-6 -2 -18 4
-27 13 -15 15 -15 15 10 4 15 -7 23 -15 17 -17z m1088 7 c-3 -8 -6 -5 -6 6 -1
11 2 17 5 13 3 -3 4 -12 1 -19z m-270 -16 c-9 -2 -15 -7 -12 -12 3 -5 -4 -7
-16 -5 -31 6 -37 15 -10 15 17 0 21 4 17 15 -5 13 -2 14 17 3 19 -11 20 -13 4
-16z m-3170 12 c-3 -3 -12 -4 -19 -1 -8 3 -5 6 6 6 11 1 17 -2 13 -5z m3218
-12 c-3 -3 -11 0 -18 7 -9 10 -8 11 6 5 10 -3 15 -9 12 -12z m-145 -1 c0 -4
-11 -6 -25 -3 -14 2 -25 6 -25 8 0 2 11 4 25 4 14 0 25 -4 25 -9z m-2953 -17
c-3 -3 -12 -4 -19 -1 -8 3 -5 6 6 6 11 1 17 -2 13 -5z m208 -4 c3 -5 -1 -10
-9 -10 -8 0 -18 5 -21 10 -3 6 1 10 9 10 8 0 18 -4 21 -10z m2435 -4 c0 -3 -4
-8 -10 -11 -5 -3 -10 -1 -10 4 0 6 5 11 10 11 6 0 10 -2 10 -4z m37 -2 c-3 -3
-12 -4 -19 -1 -8 3 -5 6 6 6 11 1 17 -2 13 -5z m-2936 -42 c-7 -2 -18 1 -23 6
-8 8 -4 9 13 5 13 -4 18 -8 10 -11z m76 -58 c-3 -3 -12 -4 -19 -1 -8 3 -5 6 6
6 11 1 17 -2 13 -5z m136 -5 c-8 -8 -16 -8 -30 0 -16 9 -14 10 12 11 21 0 26
-3 18 -11z m312 1 c-3 -5 -11 -10 -16 -10 -6 0 -7 5 -4 10 3 6 11 10 16 10 6
0 7 -4 4 -10z m1835 -6 c0 -2 -21 -4 -47 -3 -37 1 -42 3 -23 8 24 7 70 3 70
-5z m55 -4 c3 -5 -4 -6 -15 -3 -11 3 -22 9 -25 13 -3 5 4 6 15 3 11 -3 22 -9
25 -13z m163 3 c-21 -2 -57 -2 -80 0 -24 2 -7 4 37 4 44 0 63 -2 43 -4z m512
-3 c0 -6 -16 -8 -42 -4 -59 9 -60 14 -5 14 26 0 47 -5 47 -10z m210 6 c0 -2
-7 -7 -16 -10 -8 -3 -12 -2 -9 4 6 10 25 14 25 6z m-60 -17 c0 -6 -9 -8 -20
-4 -11 4 -20 2 -20 -4 0 -6 -7 -8 -15 -5 -27 11 -16 24 20 24 19 0 35 -5 35
-11z m-150 -30 c0 -11 -4 -17 -10 -14 -5 3 -10 13 -10 21 0 8 5 14 10 14 6 0
10 -9 10 -21z m-2670 -39 c0 -5 -5 -10 -11 -10 -5 0 -7 5 -4 10 3 6 8 10 11
10 2 0 4 -4 4 -10z m-25 -60 c7 -12 -2 -12 -30 0 -19 8 -19 9 2 9 12 1 25 -3
28 -9z m2704 -92 c-1 -38 -5 -65 -8 -60 -3 5 -13 12 -21 15 -12 4 -11 6 3 6
16 1 18 8 14 48 -2 26 -9 49 -15 51 -7 2 -10 8 -7 12 3 5 12 7 21 3 11 -4 14
-21 13 -75z m-34 42 c3 -6 -1 -7 -9 -4 -18 7 -21 14 -7 14 6 0 13 -4 16 -10z
m-2617 -187 c-10 -2 -26 -2 -35 0 -10 3 -2 5 17 5 19 0 27 -2 18 -5z m840 0
c-10 -2 -26 -2 -35 0 -10 3 -2 5 17 5 19 0 27 -2 18 -5z m145 0 c-13 -2 -35
-2 -50 0 -16 2 -5 4 22 4 28 0 40 -2 28 -4z m100 0 c-13 -2 -35 -2 -50 0 -16
2 -5 4 22 4 28 0 40 -2 28 -4z m184 1 c-3 -3 -12 -4 -19 -1 -8 3 -5 6 6 6 11
1 17 -2 13 -5z m106 -1 c-13 -2 -35 -2 -50 0 -16 2 -5 4 22 4 28 0 40 -2 28
-4z m107 -3 c0 -12 -17 -12 -45 0 -17 7 -15 9 13 9 17 1 32 -3 32 -9z m84 1
c3 -4 -6 -6 -19 -3 -14 2 -25 6 -25 8 0 8 39 4 44 -5z m871 -1 c8 -13 -35 -13
-55 0 -11 7 -7 10 17 10 17 0 35 -4 38 -10z m268 3 c3 -5 -28 -8 -68 -9 -41 0
-72 3 -70 7 6 9 133 11 138 2z m156 3 c-11 -10 -139 -16 -139 -6 0 6 29 10 72
10 39 0 69 -2 67 -4z m-2452 -12 c-3 -3 -12 -4 -19 -1 -8 3 -5 6 6 6 11 1 17
-2 13 -5z m115 -6 c-23 -8 -39 -8 -55 0 -19 9 -13 11 33 10 53 0 54 -1 22 -10z
m88 2 c24 -15 7 -18 -20 -3 -14 7 -18 13 -10 13 8 0 22 -4 30 -10z m169 6
c-10 -8 -89 -13 -83 -5 3 5 24 9 46 9 23 0 39 -2 37 -4z m854 -3 c-7 -2 -19
-2 -25 0 -7 3 -2 5 12 5 14 0 19 -2 13 -5z m104 1 c-3 -3 -12 -4 -19 -1 -8 3
-5 6 6 6 11 1 17 -2 13 -5z m56 -1 c-7 -2 -19 -2 -25 0 -7 3 -2 5 12 5 14 0
19 -2 13 -5z m400 0 c-13 -2 -35 -2 -50 0 -16 2 -5 4 22 4 28 0 40 -2 28 -4z
m357 -2 c0 -5 -11 -8 -25 -8 -14 0 -25 3 -25 8 0 5 11 9 25 9 14 0 25 -4 25
-9z m-610 -11 c8 -5 11 -10 5 -10 -5 0 -17 5 -25 10 -8 5 -10 10 -5 10 6 0 17
-5 25 -10z m-35 -60 c3 -6 -1 -7 -9 -4 -18 7 -21 14 -7 14 6 0 13 -4 16 -10z
m165 -60 c8 -5 11 -10 5 -10 -5 0 -17 5 -25 10 -8 5 -10 10 -5 10 6 0 17 -5
25 -10z m-7 -67 c-7 -2 -19 -2 -25 0 -7 3 -2 5 12 5 14 0 19 -2 13 -5z m-1416
-203 c3 -9 1 -11 -4 -4 -4 5 -39 11 -78 13 -38 1 -71 4 -74 7 -3 3 30 4 74 2
59 -2 79 -7 82 -18z m43 4 c0 -2 -7 -4 -15 -4 -8 0 -15 4 -15 10 0 5 7 7 15 4
8 -4 15 -8 15 -10z m103 9 c-13 -2 -33 -2 -45 0 -13 2 -3 4 22 4 25 0 35 -2
23 -4z m74 1 c-3 -3 -12 -4 -19 -1 -8 3 -5 6 6 6 11 1 17 -2 13 -5z m242 -10
c2 -2 -25 -4 -60 -4 -39 0 -59 4 -51 9 13 8 101 3 111 -5z m336 6 c-3 -5 -18
-9 -33 -9 l-27 1 30 8 c17 4 31 8 33 9 2 0 0 -3 -3 -9z m144 -6 c2 -2 -12 -4
-32 -4 -20 0 -39 5 -42 11 -5 7 5 8 32 3 21 -4 40 -8 42 -10z m104 9 c-13 -2
-33 -2 -45 0 -13 2 -3 4 22 4 25 0 35 -2 23 -4z m115 0 c-10 -2 -28 -2 -40 0
-13 2 -5 4 17 4 22 1 32 -1 23 -4z m157 -4 c-54 -11 -85 -11 -85 0 0 4 28 8
63 8 57 0 59 0 22 -8z m72 5 c-3 -3 -12 -4 -19 -1 -8 3 -5 6 6 6 11 1 17 -2
13 -5z m-1692 -14 c3 -6 -1 -7 -9 -4 -18 7 -21 14 -7 14 6 0 13 -4 16 -10z
m895 0 c0 -6 -26 -9 -62 -8 l-63 1 60 7 c33 4 61 7 63 8 1 1 2 -2 2 -8z m137
4 c-3 -3 -12 -4 -19 -1 -8 3 -5 6 6 6 11 1 17 -2 13 -5z m968 -152 c-3 -3 -11
0 -18 7 -9 10 -8 11 6 5 10 -3 15 -9 12 -12z m-1095 -32 c0 -5 -5 -10 -11 -10
-5 0 -7 5 -4 10 3 6 8 10 11 10 2 0 4 -4 4 -10z m725 -120 c3 -5 2 -10 -4 -10
-5 0 -13 5 -16 10 -3 6 -2 10 4 10 5 0 13 -4 16 -10z m-38 -16 c-3 -3 -12 -4
-19 -1 -8 3 -5 6 6 6 11 1 17 -2 13 -5z m-962 -72 c-3 -3 -11 0 -18 7 -9 10
-8 11 6 5 10 -3 15 -9 12 -12z m253 11 c-10 -2 -26 -2 -35 0 -10 3 -2 5 17 5
19 0 27 -2 18 -5z m105 0 c-13 -2 -35 -2 -50 0 -16 2 -5 4 22 4 28 0 40 -2 28
-4z m145 0 c-10 -2 -28 -2 -40 0 -13 2 -5 4 17 4 22 1 32 -1 23 -4z m175 0
c-7 -2 -21 -2 -30 0 -10 3 -4 5 12 5 17 0 24 -2 18 -5z"/>
<path d="M3861 2711 c-10 -6 -6 -11 15 -19 19 -7 23 -11 11 -11 -16 -1 -17 -3
-3 -16 22 -22 26 -19 26 20 0 19 -4 35 -10 35 -5 0 -10 -6 -10 -12 0 -10 -2
-10 -8 -1 -4 7 -13 9 -21 4z"/>
<path d="M4486 2658 c-10 -89 -31 -149 -71 -196 -41 -47 -42 -52 -14 -52 11 0
17 -4 14 -10 -3 -5 -17 -10 -31 -10 -14 0 -22 4 -19 10 9 14 7 13 -66 -16 -47
-20 -88 -28 -156 -32 -181 -9 -90 -22 162 -22 l255 0 0 35 c0 21 -5 35 -12 35
-9 0 -9 3 0 12 8 8 12 58 12 160 l0 148 -34 0 -33 0 -7 -62z m4 -138 c0 -5 -4
-10 -10 -10 -5 0 -10 5 -10 10 0 6 5 10 10 10 6 0 10 -4 10 -10z"/>
<path d="M3751 2663 c-1 -32 3 -43 14 -43 8 0 15 5 15 10 0 6 -6 10 -12 10 -9
0 -10 2 -2 8 16 10 15 59 -1 59 -7 0 -13 -17 -14 -44z"/>
<path d="M4633 2653 c-19 -7 -17 -73 2 -73 16 0 16 20 0 32 -6 5 -6 8 2 8 6 0
11 9 10 20 -1 11 -1 20 -2 19 0 0 -6 -3 -12 -6z"/>
<path d="M3847 2593 c-12 -11 -7 -24 6 -17 9 6 9 4 1 -7 -6 -8 -12 -50 -14
-94 -1 -44 -3 -93 -4 -110 -1 -28 2 -30 37 -33 l37 -3 0 94 c0 112 -8 157 -26
157 -8 0 -14 5 -14 10 0 11 -13 13 -23 3z"/>
<path d="M4620 2491 c0 -30 4 -41 16 -41 11 0 14 9 12 37 -4 52 -28 56 -28 4z"/>
<path d="M2050 2448 c0 -25 3 -29 10 -18 13 20 13 50 0 50 -5 0 -10 -15 -10
-32z"/>
<path d="M2355 2443 c-14 -32 -13 -43 2 -43 13 0 13 3 3 15 -11 14 -7 19 12
16 4 0 5 6 2 14 -8 19 -10 19 -19 -2z"/>
<path d="M5968 2443 c7 -3 16 -2 19 1 4 3 -2 6 -13 5 -11 0 -14 -3 -6 -6z"/>
<path d="M4635 2430 c3 -5 8 -10 11 -10 2 0 4 5 4 10 0 6 -5 10 -11 10 -5 0
-7 -4 -4 -10z"/>
<path d="M6350 2400 c-12 -8 -11 -10 7 -10 12 0 25 5 28 10 8 13 -15 13 -35 0z"/>
<path d="M4614 2386 c-9 -24 0 -51 19 -54 15 -3 18 2 15 29 -3 35 -24 51 -34
25z"/>
<path d="M6298 2393 c6 -2 18 -2 25 0 6 3 1 5 -13 5 -14 0 -19 -2 -12 -5z"/>
<path d="M2299 2369 c-13 -9 -33 -19 -44 -22 -11 -2 -2 -5 21 -6 28 -1 46 5
57 17 10 10 17 21 17 24 0 11 -29 4 -51 -13z"/>
<path d="M6060 2358 c0 -35 11 -35 37 0 l20 27 -29 0 c-24 1 -28 -3 -28 -27z"/>
<path d="M6145 2340 c-3 -5 -3 -14 0 -20 9 -15 35 -12 35 4 0 8 6 17 13 19 6
3 0 6 -15 6 -15 1 -30 -3 -33 -9z"/>
<path d="M2848 2323 c7 -3 16 -2 19 1 4 3 -2 6 -13 5 -11 0 -14 -3 -6 -6z"/>
<path d="M2939 2321 c21 -13 308 -14 316 -1 4 7 -48 10 -162 10 -103 0 -163
-4 -154 -9z"/>
<path d="M6308 2323 c7 -3 16 -2 19 1 4 3 -2 6 -13 5 -11 0 -14 -3 -6 -6z"/>
<path d="M3853 2313 c9 -2 25 -2 35 0 9 3 1 5 -18 5 -19 0 -27 -2 -17 -5z"/>
<path d="M4118 2313 c18 -2 45 -2 60 0 15 2 0 4 -33 4 -33 0 -45 -2 -27 -4z"/>
<path d="M4298 2313 c28 -2 76 -2 105 0 28 2 5 3 -53 3 -58 0 -81 -1 -52 -3z"/>
<path d="M4498 2313 c12 -2 30 -2 40 0 9 3 -1 5 -23 4 -22 0 -30 -2 -17 -4z"/>
<path d="M4963 2313 c15 -2 37 -2 50 0 12 2 0 4 -28 4 -27 0 -38 -2 -22 -4z"/>
<path d="M5278 2313 c12 -2 32 -2 45 0 12 2 2 4 -23 4 -25 0 -35 -2 -22 -4z"/>
<path d="M6064 2295 c8 -8 18 -15 22 -15 3 0 1 7 -6 15 -7 8 -17 15 -22 15 -5
0 -3 -7 6 -15z"/>
<path d="M5392 2244 c9 -9 21 -13 27 -10 20 13 11 26 -16 26 -25 0 -26 -1 -11
-16z"/>
<path d="M2275 2230 c-3 -5 -1 -10 4 -10 6 0 11 5 11 10 0 6 -2 10 -4 10 -3 0
-8 -4 -11 -10z"/>
<path d="M2245 2220 c-3 -5 -1 -10 4 -10 6 0 11 5 11 10 0 6 -2 10 -4 10 -3 0
-8 -4 -11 -10z"/>
<path d="M5310 2206 c0 -8 6 -16 14 -19 10 -4 12 0 9 14 -6 22 -23 26 -23 5z"/>
<path d="M5418 2213 c7 -3 16 -2 19 1 4 3 -2 6 -13 5 -11 0 -14 -3 -6 -6z"/>
<path d="M5504 2205 c8 -8 18 -15 22 -15 3 0 1 7 -6 15 -7 8 -17 15 -22 15 -5
0 -3 -7 6 -15z"/>
<path d="M6073 1913 c-3 -10 -26 -65 -51 -123 -25 -58 -45 -111 -45 -117 0 -7
-4 -13 -8 -13 -6 0 -69 -103 -69 -114 0 -9 56 -13 67 -4 7 5 18 8 25 5 8 -4 7
-6 -4 -6 -10 -1 -18 -6 -18 -12 0 -8 -12 -10 -35 -6 -22 4 -35 2 -35 -5 0 -6
-3 -9 -6 -5 -4 3 -14 -4 -24 -16 -16 -20 -17 -22 -1 -35 14 -12 14 -12 -5 -7
-25 6 -49 -18 -38 -37 4 -7 4 -10 -1 -6 -4 4 -30 -21 -57 -55 -27 -34 -79 -92
-115 -130 l-66 -67 80 0 79 0 47 54 c26 30 47 59 47 64 0 6 4 12 8 14 17 7 92
110 86 119 -3 5 0 9 5 9 12 0 64 79 64 97 0 7 4 13 9 13 5 0 7 4 4 9 -3 5 0
11 8 14 22 9 166 325 166 365 0 4 -25 8 -55 10 -46 3 -56 0 -62 -15z m-129
-448 c3 -8 2 -15 -3 -15 -5 0 -14 7 -21 15 -10 12 -10 15 3 15 8 0 17 -7 21
-15z"/>
<path d="M5622 1143 c-44 -4 -75 -24 -187 -117 -27 -24 -68 -55 -90 -69 l-40
-27 35 1 c29 0 31 2 15 9 -14 6 -15 9 -5 9 9 1 26 -6 38 -15 12 -8 22 -11 22
-5 0 6 7 8 15 4 30 -11 3 -17 -65 -15 -61 3 -73 0 -112 -25 -24 -15 -44 -31
-46 -35 -2 -5 -11 -8 -20 -9 -9 0 -55 -20 -102 -44 l-85 -44 120 0 120 -1 62
37 c34 20 60 40 57 45 -5 7 3 10 22 7 4 0 10 4 13 9 3 5 20 16 36 25 47 24
209 167 217 191 3 11 6 15 7 8 1 -7 6 -10 11 -7 6 4 7 11 4 17 -4 6 -3 8 3 5
12 -8 56 36 46 46 -3 4 -16 6 -27 5 -12 -1 -40 -3 -64 -5z m-17 -23 c13 -6 15
-9 5 -9 -8 0 -22 4 -30 9 -18 12 -2 12 25 0z m55 0 c-8 -5 -19 -10 -25 -10 -5
0 -3 5 5 10 8 5 20 10 25 10 6 0 3 -5 -5 -10z m-33 -56 c-3 -3 -12 -4 -19 -1
-8 3 -5 6 6 6 11 1 17 -2 13 -5z m-82 -44 c3 -5 1 -10 -4 -10 -6 0 -11 5 -11
10 0 6 2 10 4 10 3 0 8 -4 11 -10z m-77 -26 c2 -17 2 -17 -8 -2 -6 10 -18 15
-28 12 -14 -5 -15 -4 -2 5 20 14 34 9 38 -15z m-148 -94 c8 6 20 10 25 9 6 0
-1 -7 -15 -15 -24 -14 -24 -15 -3 -11 26 6 41 -8 19 -16 -16 -7 -56 19 -56 36
0 9 2 9 8 0 5 -8 13 -9 22 -3z m-70 -40 c0 -5 -2 -10 -4 -10 -3 0 -8 5 -11 10
-3 6 -1 10 4 10 6 0 11 -4 11 -10z m-3 -26 c-3 -3 -12 -4 -19 -1 -8 3 -5 6 6
6 11 1 17 -2 13 -5z"/>
<path d="M5147 743 c-2 -1 -39 -3 -82 -4 -44 -1 -104 -10 -132 -19 -29 -10
-53 -14 -53 -9 0 4 -13 3 -30 -2 -28 -10 -30 -14 -30 -65 0 -33 4 -54 11 -54
18 0 146 48 218 81 51 24 62 32 51 41 -12 7 -9 8 9 4 19 -4 81 16 81 27 0 3
-40 4 -43 0z m-240 -68 c-6 -7 -15 -11 -19 -8 -14 8 -8 19 12 20 16 1 17 -1 7
-12z"/>
</g>
</svg>
